<svg preserveAspectRatio="none" overflow="visible" style="display: block;" width="44" height="44" viewBox="0 0 44 44" fill="none" xmlns="http://www.w3.org/2000/svg">
<g id="HTML vector / bulb">
<path id="Vector" d="M16.5 33H27.5M18.3333 38.5H25.6667M22 5.5C19.7608 5.48826 17.5713 6.1602 15.7241 7.42604C13.8769 8.69189 12.4601 10.4913 11.6629 12.5839C10.8658 14.6765 10.7262 16.9625 11.263 19.1365C11.7997 21.3105 12.9872 23.2689 14.6667 24.75C15.95 26.0333 16.5 27.6833 16.5 29.3333H27.5C27.5 27.6833 28.05 26.0333 29.3333 24.75C31.0128 23.2689 32.2003 21.3105 32.737 19.1365C33.2738 16.9625 33.1342 14.6765 32.3371 12.5839C31.5399 10.4913 30.1231 8.69189 28.2759 7.42604C26.4287 6.1602 24.2392 5.48826 22 5.5Z" stroke="#0757FF" stroke-width="2.93333" stroke-linecap="round" stroke-linejoin="round"/>
</g>
</svg>
